HIERARCHY
ROOT Hips
{
	OFFSET 0.000000 0.000000 0.000000
	CHANNELS 6 Xposition Yposition Zposition Zrotation Yrotation Xrotation 
	JOINT LowerBack
	{
		OFFSET 0.000000 0.000000 0.000000
		CHANNELS 3 Zrotation Yrotation Xrotation
		JOINT Spine
		{
			OFFSET 0.028270 2.035590 -0.193380
			CHANNELS 3 Zrotation Yrotation Xrotation
			JOINT Spine1
			{
				OFFSET 0.056720 2.048850 -0.042750
				CHANNELS 3 Zrotation Yrotation Xrotation
				JOINT Neck
				{
					OFFSET 0.000000 0.000000 0.000000
					CHANNELS 3 Zrotation Yrotation Xrotation
					JOINT Neck1
					{
						OFFSET -0.054170 1.746240 0.172020
						CHANNELS 3 Zrotation Yrotation Xrotation
						JOINT Head
						{
							OFFSET 0.104070 1.761360 -0.123970
							CHANNELS 3 Zrotation Yrotation Xrotation
							End Site
							{
								OFFSET 0.000000 0.000000 0.000000
							}
						}
					}
				}
				JOINT LeftShoulder
				{
					OFFSET 0.000000 0.000000 0.000000
					CHANNELS 3 Zrotation Yrotation Xrotation
					JOINT LeftArm
					{
						OFFSET 3.362410 1.200890 -0.311210
						CHANNELS 3 Zrotation Yrotation Xrotation
						JOINT LeftForeArm
						{
							OFFSET 4.983000 -0.000000 -0.000000
							CHANNELS 3 Zrotation Yrotation Xrotation
							JOINT LeftHand
							{
								OFFSET 3.483560 -0.000000 -0.000000
								CHANNELS 3 Zrotation Yrotation Xrotation
								JOINT LeftFingerBase
								{
									OFFSET 0.000000 0.000000 0.000000
									CHANNELS 3 Zrotation Yrotation Xrotation
									JOINT LeftHandIndex1
									{
										OFFSET 0.715260 -0.000000 -0.000000
										CHANNELS 3 Zrotation Yrotation Xrotation
										End Site
										{
											OFFSET 0.000000 0.000000 0.000000
										}
									}
								}
								JOINT LThumb
								{
									OFFSET 0.000000 0.000000 0.000000
									CHANNELS 3 Zrotation Yrotation Xrotation
									End Site
									{
										OFFSET 0.000000 0.000000 0.000000
									}
								}
							}
						}
					}
				}
				JOINT RightShoulder
				{
					OFFSET 0.000000 0.000000 0.000000
					CHANNELS 3 Zrotation Yrotation Xrotation
					JOINT RightArm
					{
						OFFSET -3.136600 1.374050 -0.404650
						CHANNELS 3 Zrotation Yrotation Xrotation
						JOINT RightForeArm
						{
							OFFSET -5.241900 -0.000000 -0.000000
							CHANNELS 3 Zrotation Yrotation Xrotation
							JOINT RightHand
							{
								OFFSET -3.444170 -0.000000 -0.000000
								CHANNELS 3 Zrotation Yrotation Xrotation
								JOINT RightFingerBase
								{
									OFFSET 0.000000 0.000000 0.000000
									CHANNELS 3 Zrotation Yrotation Xrotation
									JOINT RightHandIndex1
									{
										OFFSET -0.622530 -0.000000 -0.000000
										CHANNELS 3 Zrotation Yrotation Xrotation
										End Site
										{
											OFFSET 0.000000 0.000000 0.000000
										}
									}
								}
								JOINT RThumb
								{
									OFFSET 0.000000 0.000000 0.000000
									CHANNELS 3 Zrotation Yrotation Xrotation
									End Site
									{
										OFFSET 0.000000 0.000000 0.000000
									}
								}
							}
						}
					}
				}
			}
		}
	}
}
}
MOTION
Frames: 7
Frame Time: 0.008333
4.251769 17.365201 1.012586 22.514822 -86.883082 -15.312725 -3.302536 -0.465324 -5.014591 -1.389801 -0.281526 -4.722421 -6.084769 -0.197390 -5.633300 7.026921 -0.696057 5.243876 -2.815522 -0.368312 3.546394 0.000000 0.000000 0.000000 12.036143 3.553113 -4.909297 -79.852027 -49.147042 11.592819 177.511838 -61.083446 179.792003 10.370305 -7.140743 -0.753922 0.016654 1.165040 -0.000000 0.000000 0.000000 0.000000 0.000000 0.000000 0.000000 1.132984 0.528990 -6.256774 86.090269 48.258906 12.299493 -175.674559 61.818115 179.630714 -21.164649 17.524848 -3.560806 0.138741 -1.206302 -0.000000 0.000000 0.000000 0.000000 0.000000 0.000000 0.000000 
4.230776 17.367016 0.988690 19.065389 -86.132067 -11.649933 -3.505162 -0.518461 -5.162876 -1.427724 -0.318695 -4.708110 -6.118772 -0.234786 -5.459035 7.004943 -0.987652 5.046711 -2.810787 -0.365465 3.492084 0.000000 0.000000 0.000000 11.741510 3.832885 -4.831023 -79.536815 -48.839520 11.537214 177.634966 -61.103554 179.795356 10.262663 -7.116453 -0.744076 0.010422 1.163011 -0.000000 0.000000 0.000000 0.000000 0.000000 0.000000 0.000000 0.928162 0.233354 -6.278738 86.102741 48.134483 12.180823 -175.680892 61.609884 179.631038 -21.197741 17.517278 -3.566110 0.143913 -1.208518 -0.000000 0.000000 0.000000 0.000000 0.000000 0.000000 0.000000 
4.208806 17.369053 0.963942 16.571378 -85.402485 -8.917636 -3.688525 -0.565749 -5.327857 -1.461728 -0.352396 -4.695296 -6.152601 -0.267777 -5.277157 6.972769 -1.275967 4.835670 -2.805852 -0.362404 3.433901 0.000000 0.000000 0.000000 11.420367 4.126769 -4.734305 -79.155325 -48.434515 11.417226 177.770385 -61.098227 179.799025 10.148684 -7.085790 -0.733221 0.003119 1.160667 -0.000000 0.000000 0.000000 0.000000 0.000000 0.000000 0.000000 0.702820 -0.053889 -6.303514 86.122507 47.997695 12.060160 -175.688061 61.392281 179.631294 -21.239099 17.513467 -3.573707 0.149590 -1.211016 -0.000000 0.000000 0.000000 0.000000 0.000000 0.000000 0.000000 
4.186554 17.371222 0.938291 14.738246 -84.709559 -6.832065 -3.859907 -0.607701 -5.494686 -1.493078 -0.382095 -4.682512 -6.184702 -0.295990 -5.093387 6.928740 -1.553488 4.612514 -2.800463 -0.359144 3.372189 0.000000 0.000000 0.000000 11.074547 4.424776 -4.615753 -78.691606 -47.922881 11.214351 177.916215 -61.065841 179.802909 10.034361 -7.047755 -0.721859 -0.005353 1.157907 -0.000000 0.000000 0.000000 0.000000 0.000000 0.000000 0.000000 0.459225 -0.323528 -6.330151 86.149195 47.855081 11.939043 -175.696091 61.170341 179.631440 -21.290750 17.512861 -3.583797 0.155742 -1.213753 -0.000000 0.000000 0.000000 0.000000 0.000000 0.000000 0.000000 
4.163917 17.373567 0.911786 13.357356 -84.066363 -5.174967 -4.022968 -0.644612 -5.669673 -1.522082 -0.407807 -4.671998 -6.213313 -0.319803 -4.911931 6.871873 -1.815663 4.378203 -2.794304 -0.355693 3.307296 0.000000 0.000000 0.000000 10.712373 4.713384 -4.473981 -78.141175 -47.283308 10.911507 178.069460 -61.003371 179.806802 9.932503 -7.000870 -0.710693 -0.015273 1.154611 -0.000000 0.000000 0.000000 0.000000 0.000000 0.000000 0.000000 0.196287 -0.570709 -6.357534 86.185172 47.705505 11.821962 -175.704646 60.946502 179.631450 -21.355062 17.513892 -3.596479 0.162399 -1.216697 -0.000000 0.000000 0.000000 0.000000 0.000000 0.000000 0.000000 
4.141464 17.376020 0.884395 12.319233 -83.488849 -3.842397 -4.181299 -0.676524 -5.843885 -1.549243 -0.429007 -4.663505 -6.237233 -0.338895 -4.738789 6.801461 -2.057733 4.134351 -2.787138 -0.352061 3.239610 0.000000 0.000000 0.000000 10.336086 4.980948 -4.307399 -77.497820 -46.507799 10.496950 178.227555 -60.914967 179.810540 9.853063 -6.944381 -0.700518 -0.026775 1.150634 -0.000000 0.000000 0.000000 0.000000 0.000000 0.000000 0.000000 -0.083545 -0.788639 -6.384218 86.230968 47.554255 11.712597 -175.713799 60.725565 179.631296 -21.432210 17.515888 -3.611658 0.169485 -1.219818 -0.000000 0.000000 0.000000 0.000000 0.000000 0.000000 0.000000 
4.119749 17.378484 0.856118 11.558909 -82.994918 -2.776932 -4.336974 -0.703115 -6.005895 -1.574976 -0.444950 -4.656238 -6.256074 -0.352682 -4.579447 6.717204 -2.274773 3.882605 -2.778728 -0.348253 3.169493 0.000000 0.000000 0.000000 9.941324 5.220989 -4.114483 -76.755936 -45.600455 9.967480 178.389570 -60.811722 179.814060 9.799473 -6.879689 -0.691438 -0.039820 1.145878 -0.000000 0.000000 0.000000 0.000000 0.000000 0.000000 0.000000 -0.376239 -0.969310 -6.408939 86.286197 47.409614 11.614118 -175.724041 60.513533 179.630974 -21.520236 17.519065 -3.628934 0.176858 -1.223089 -0.000000 0.000000 0.000000 0.000000 0.000000 0.000000 0.000000 
